<svg width="23" height="20" viewBox="0 0 23 20" fill="none" xmlns="http://www.w3.org/2000/svg">
<path d="M22.0244 4.92334C21.9222 4.77565 21.7858 4.65492 21.6267 4.57152C21.4676 4.48812 21.2907 4.44452 21.1111 4.44445H5.92555L4.64333 1.36668C4.4757 0.96102 4.19113 0.614431 3.82586 0.371049C3.46059 0.127666 3.03115 -0.00149512 2.59222 1.30586e-05H0V2.22223H2.59222L7.86333 14.8722C7.94776 15.0746 8.09019 15.2475 8.27269 15.3691C8.45519 15.4907 8.66959 15.5556 8.88888 15.5556H17.7778C18.2411 15.5556 18.6555 15.2678 18.8189 14.8356L22.1522 5.94668C22.2152 5.77848 22.2365 5.59751 22.2142 5.41929C22.192 5.24106 22.1269 5.07089 22.0244 4.92334Z" fill="#ECE4B7"/>
<path d="M9.44444 20C10.3649 20 11.1111 19.2538 11.1111 18.3333C11.1111 17.4129 10.3649 16.6667 9.44444 16.6667C8.52396 16.6667 7.77777 17.4129 7.77777 18.3333C7.77777 19.2538 8.52396 20 9.44444 20Z" fill="#ECE4B7"/>
<path d="M17.2222 20C18.1427 20 18.8889 19.2538 18.8889 18.3333C18.8889 17.4129 18.1427 16.6667 17.2222 16.6667C16.3017 16.6667 15.5555 17.4129 15.5555 18.3333C15.5555 19.2538 16.3017 20 17.2222 20Z" fill="#ECE4B7"/>
</svg>
