<svg width="27" height="27" viewBox="0 0 27 27" fill="none" xmlns="http://www.w3.org/2000/svg">
<circle cx="13.5" cy="13.5" r="13.5" fill="#16302B"/>
<path d="M15.8267 6.5H10.5326C7.85242 6.5 5.67969 8.67274 5.67969 11.3529V16.6471C5.67969 19.3273 7.85242 21.5 10.5326 21.5H15.8267C18.507 21.5 20.6797 19.3273 20.6797 16.6471V11.3529C20.6797 8.67274 18.507 6.5 15.8267 6.5Z" fill="#16302B" stroke="#91422A" stroke-width="1.5" stroke-linecap="round" stroke-linejoin="round"/>
<path d="M13.1798 17.1819C14.9371 17.1819 16.3616 15.7574 16.3616 14.0001C16.3616 12.2429 14.9371 10.8184 13.1798 10.8184C11.4226 10.8184 9.99805 12.2429 9.99805 14.0001C9.99805 15.7574 11.4226 17.1819 13.1798 17.1819Z" fill="#16302B" stroke="#91422A" stroke-width="1.5" stroke-linecap="round" stroke-linejoin="round"/>
<path d="M17.498 9.27295C17.7237 9.27314 17.9062 9.45646 17.9062 9.68213C17.9061 9.90763 17.7236 10.0901 17.498 10.0903C17.2724 10.0903 17.0891 9.90775 17.0889 9.68213C17.0889 9.45634 17.2723 9.27295 17.498 9.27295Z" fill="#233D4D" stroke="#91422A"/>
</svg>
