<svg width="20" height="20" viewBox="0 0 20 20" fill="none" xmlns="http://www.w3.org/2000/svg">
<path d="M10 0C15.522 0 20 3.978 20 8.889C19.9987 10.362 19.4129 11.7744 18.3712 12.8159C17.3295 13.8574 15.917 14.4429 14.444 14.444H12.478C11.556 14.444 10.811 15.189 10.811 16.111C10.811 16.533 10.978 16.922 11.233 17.211C11.5 17.511 11.667 17.9 11.667 18.333C11.667 19.256 10.9 20 10 20C4.478 20 0 15.522 0 10C0 4.478 4.478 0 10 0ZM5.5 10C5.89782 10 6.27936 9.84197 6.56066 9.56066C6.84197 9.27936 7 8.89783 7 8.5C7 8.10218 6.84197 7.72064 6.56066 7.43934C6.27936 7.15804 5.89782 7 5.5 7C5.10218 7 4.72064 7.15804 4.43934 7.43934C4.15804 7.72064 4 8.10218 4 8.5C4 8.89783 4.15804 9.27936 4.43934 9.56066C4.72064 9.84197 5.10218 10 5.5 10ZM14.5 10C14.8978 10 15.2794 9.84197 15.5607 9.56066C15.842 9.27936 16 8.89783 16 8.5C16 8.10218 15.842 7.72064 15.5607 7.43934C15.2794 7.15804 14.8978 7 14.5 7C14.1022 7 13.7206 7.15804 13.4393 7.43934C13.158 7.72064 13 8.10218 13 8.5C13 8.89783 13.158 9.27936 13.4393 9.56066C13.7206 9.84197 14.1022 10 14.5 10ZM10 7C10.3978 7 10.7794 6.84197 11.0607 6.56066C11.342 6.27936 11.5 5.89782 11.5 5.5C11.5 5.10218 11.342 4.72064 11.0607 4.43934C10.7794 4.15804 10.3978 4 10 4C9.60218 4 9.22064 4.15804 8.93934 4.43934C8.65804 4.72064 8.5 5.10218 8.5 5.5C8.5 5.89782 8.65804 6.27936 8.93934 6.56066C9.22064 6.84197 9.60218 7 10 7Z" fill="#ECE4B7"/>
</svg>
