<svg width="20" height="20" viewBox="0 0 20 20" fill="none" xmlns="http://www.w3.org/2000/svg">
<path d="M9.57846 0.769236C9.57846 0.565222 9.49742 0.369564 9.35316 0.225304C9.2089 0.0810442 9.01324 0 8.80923 0C8.60522 0 8.40956 0.0810442 8.2653 0.225304C8.12104 0.369564 8.04 0.565222 8.04 0.769236V2.79797C8.04 3.00198 8.12104 3.19764 8.2653 3.3419C8.40956 3.48616 8.60522 3.5672 8.80923 3.5672C9.01324 3.5672 9.2089 3.48616 9.35316 3.3419C9.49742 3.19764 9.57846 3.00198 9.57846 2.79797V0.769236ZM3.82872 2.76412C3.6844 2.62306 3.49044 2.54436 3.28864 2.54499C3.08683 2.54561 2.89336 2.62552 2.74993 2.76747C2.60649 2.90943 2.52459 3.10206 2.52187 3.30385C2.51915 3.50564 2.59583 3.70041 2.73538 3.84618L4.24308 5.36721C4.31238 5.44559 4.39694 5.509 4.4916 5.55358C4.58625 5.59815 4.689 5.62295 4.79356 5.62645C4.89812 5.62996 5.0023 5.61209 5.09972 5.57396C5.19715 5.53582 5.28577 5.47821 5.36016 5.40465C5.43456 5.33109 5.49317 5.24313 5.53241 5.14615C5.57164 5.04916 5.59068 4.94519 5.58837 4.84059C5.58605 4.736 5.56242 4.63297 5.51892 4.53782C5.47542 4.44267 5.41297 4.3574 5.33538 4.28721L3.82872 2.76412ZM14.8831 3.84618C15.0183 3.69973 15.0915 3.50649 15.087 3.30718C15.0826 3.10787 15.001 2.91806 14.8594 2.77776C14.7177 2.63746 14.5272 2.55763 14.3278 2.55508C14.1285 2.55254 13.9359 2.62748 13.7908 2.76412L12.2831 4.28618C12.2079 4.35697 12.1477 4.44218 12.1061 4.53673C12.0646 4.63127 12.0425 4.73322 12.0411 4.8365C12.0398 4.93977 12.0593 5.04225 12.0984 5.13783C12.1376 5.2334 12.1956 5.32012 12.2689 5.39281C12.3423 5.46549 12.4296 5.52266 12.5255 5.56089C12.6215 5.59913 12.7241 5.61766 12.8274 5.61536C12.9306 5.61307 13.0324 5.59001 13.1265 5.54755C13.2207 5.50509 13.3053 5.44411 13.3754 5.36824L14.8831 3.84618ZM9.79487 8.04723C8.74359 7.63287 7.74974 8.68006 8.14359 9.69853L11.8164 19.1858C12.2369 20.2709 13.7662 20.2719 14.1867 19.1858L15.5959 15.5519L19.1938 14.1314C20.2687 13.7068 20.2687 12.1796 19.1938 11.7549L9.79487 8.04723ZM2.77949 8.11595H0.769231C0.565218 8.11595 0.369561 8.19699 0.225302 8.34125C0.0810436 8.48551 0 8.68117 0 8.88519C0 9.0892 0.0810436 9.28486 0.225302 9.42912C0.369561 9.57338 0.565218 9.65442 0.769231 9.65442H2.77949C2.9835 9.65442 3.17916 9.57338 3.32342 9.42912C3.46767 9.28486 3.54872 9.0892 3.54872 8.88519C3.54872 8.68117 3.46767 8.48551 3.32342 8.34125C3.17916 8.19699 2.9835 8.11595 2.77949 8.11595ZM5.33538 13.4842C5.47501 13.3385 5.55183 13.1439 5.54927 12.9421C5.54672 12.7404 5.46499 12.5477 5.32172 12.4056C5.17844 12.2636 4.98509 12.1835 4.78332 12.1826C4.58156 12.1818 4.38754 12.2602 4.24308 12.4011L2.73538 13.9232C2.66427 13.995 2.60799 14.0801 2.56976 14.1736C2.53153 14.2671 2.5121 14.3673 2.51257 14.4683C2.51305 14.5694 2.53342 14.6694 2.57253 14.7625C2.61164 14.8557 2.66872 14.9403 2.74051 15.0114C2.8123 15.0825 2.8974 15.1388 2.99094 15.177C3.08447 15.2152 3.18463 15.2347 3.28568 15.2342C3.38673 15.2337 3.48669 15.2133 3.57987 15.1742C3.67304 15.1351 3.7576 15.078 3.82872 15.0063L5.33538 13.4842Z" fill="#ECE4B7"/>
</svg>
