<svg width="27" height="27" viewBox="0 0 27 27" fill="none" xmlns="http://www.w3.org/2000/svg">
<circle cx="13.5" cy="13.5" r="13.5" fill="#16302B"/>
<path d="M18.44 6.82C17.7566 6.03953 17.3799 5.0374 17.38 4H14.29V16.4C14.2667 17.0712 13.9835 17.7071 13.5003 18.1735C13.0171 18.6399 12.3716 18.9004 11.7 18.9C10.28 18.9 9.1 17.74 9.1 16.3C9.1 14.58 10.76 13.29 12.47 13.82V10.66C9.02 10.2 6 12.88 6 16.3C6 19.63 8.76 22 11.69 22C14.83 22 17.38 19.45 17.38 16.3V10.01C18.633 10.9099 20.1374 11.3926 21.68 11.39V8.3C21.68 8.3 19.8 8.39 18.44 6.82Z" fill="#91422A"/>
</svg>
