<svg width="21" height="20" viewBox="0 0 21 20" fill="none" xmlns="http://www.w3.org/2000/svg">
<path d="M2.625 20C1.90312 20 1.28537 19.7487 0.771749 19.2462C0.258125 18.7437 0.000874999 18.1389 0 17.4318V14.8636C0 14.4997 0.126 14.195 0.378 13.9493C0.63 13.7036 0.941499 13.5803 1.3125 13.5795C1.6835 13.5786 1.99544 13.7019 2.24831 13.9493C2.50118 14.1967 2.62675 14.5014 2.625 14.8636V17.4318H18.375V14.8636C18.375 14.4997 18.501 14.195 18.753 13.9493C19.005 13.7036 19.3165 13.5803 19.6875 13.5795C20.0585 13.5786 20.3704 13.7019 20.6233 13.9493C20.8762 14.1967 21.0017 14.5014 21 14.8636V17.4318C21 18.138 20.7432 18.7429 20.2295 19.2462C19.7159 19.7496 19.0977 20.0009 18.375 20H2.625ZM9.18749 4.39809L6.72656 6.80579C6.46406 7.06261 6.15256 7.18589 5.79206 7.17561C5.43156 7.16534 5.11962 7.03137 4.85625 6.77369C4.61562 6.51687 4.48962 6.21724 4.47825 5.87481C4.46687 5.53238 4.59287 5.23276 4.85625 4.97594L9.58124 0.353149C9.71249 0.224738 9.85468 0.133995 10.0078 0.0809182C10.1609 0.0278417 10.325 0.000875828 10.5 1.97558e-05C10.675 -0.000836316 10.8391 0.0261296 10.9922 0.0809182C11.1453 0.135707 11.2875 0.22645 11.4187 0.353149L16.1437 4.97594C16.4062 5.23276 16.5322 5.53238 16.5217 5.87481C16.5112 6.21724 16.3852 6.51687 16.1437 6.77369C15.8812 7.03051 15.5697 7.16448 15.2092 7.17561C14.8487 7.18674 14.5368 7.06347 14.2734 6.80579L11.8125 4.39809V13.5795C11.8125 13.9433 11.6865 14.2485 11.4345 14.495C11.1825 14.7416 10.871 14.8644 10.5 14.8636C10.129 14.8627 9.81749 14.7394 9.56549 14.4937C9.31349 14.2481 9.18749 13.9433 9.18749 13.5795V4.39809Z" fill="#ECE4B7"/>
</svg>
