<svg width="22" height="22" viewBox="0 0 22 22" fill="none" xmlns="http://www.w3.org/2000/svg">
<path d="M1.52637 15.2106L6.23163 10.5053C6.40856 10.3284 6.61861 10.188 6.84979 10.0922C7.08098 9.99644 7.32876 9.94714 7.579 9.94714C7.82924 9.94714 8.07702 9.99644 8.30821 10.0922C8.53939 10.188 8.74944 10.3284 8.92637 10.5053L13.1053 14.6843M13.1053 14.6843L14.6843 16.2632M13.1053 14.6843L15.179 12.6106C15.3559 12.4336 15.566 12.2932 15.7972 12.1975C16.0283 12.1017 16.2761 12.0524 16.5264 12.0524C16.7766 12.0524 17.0244 12.1017 17.2556 12.1975C17.4868 12.2932 17.6968 12.4336 17.8737 12.6106L20.4737 15.2106" stroke="#ECE4B7" stroke-width="2" stroke-linecap="round" stroke-linejoin="round"/>
<path d="M11 1C6.54737 1 4.32105 1 2.84526 2.26105C2.63474 2.4407 2.44 2.63544 2.26105 2.84526C1 4.32105 1 6.54737 1 11C1 15.4526 1 17.6789 2.26105 19.1547C2.4407 19.3653 2.63544 19.56 2.84526 19.7389C4.32105 21 6.54737 21 11 21C15.4526 21 17.6789 21 19.1547 19.7389C19.3653 19.5593 19.56 19.3646 19.7389 19.1547C21 17.6789 21 15.4526 21 11M14.6842 4.15789C15.3053 3.51895 16.9579 1 17.8421 1C18.7263 1 20.3789 3.51895 21 4.15789M17.8421 1.52632V8.36842" stroke="#ECE4B7" stroke-width="2" stroke-linecap="round" stroke-linejoin="round"/>
</svg>
