<svg width="22" height="22" viewBox="0 0 22 22" fill="none" xmlns="http://www.w3.org/2000/svg">
<path d="M15.13 3.3054L18.695 6.87032M5.99999 6.00034H2.25C1.91848 6.00034 1.60054 6.13203 1.36612 6.36645C1.1317 6.60086 1 6.9188 1 7.25031V19.75C1 20.0815 1.1317 20.3995 1.36612 20.6339C1.60054 20.8683 1.91848 21 2.25 21H16C16.3315 21 16.6494 20.8683 16.8839 20.6339C17.1183 20.3995 17.25 20.0815 17.25 19.75V14.1252M20.2612 1.73793C20.4954 1.97206 20.6812 2.25004 20.808 2.55598C20.9348 2.86193 21 3.18985 21 3.52102C21 3.85219 20.9348 4.18011 20.808 4.48606C20.6812 4.792 20.4954 5.06998 20.2612 5.3041L11.7062 13.8589L7.24999 14.7501L8.14124 10.294L16.6962 1.73918C16.9302 1.50486 17.208 1.31896 17.5139 1.19212C17.8197 1.06529 18.1476 1 18.4787 1C18.8098 1 19.1377 1.06529 19.4436 1.19212C19.7494 1.31896 20.0273 1.50486 20.2612 1.73918V1.73793Z" stroke="#ECE4B7" stroke-width="2" stroke-linecap="round" stroke-linejoin="round"/>
</svg>
