<svg width="22" height="22" viewBox="0 0 22 22" fill="none" xmlns="http://www.w3.org/2000/svg">
<path d="M13 16.9162C13.2925 17.2525 13.685 17.4863 14.1187 17.5838C14.5362 17.7311 14.9941 17.7148 15.4 17.5381C15.8059 17.3613 16.1297 17.0373 16.3063 16.6312C16.5213 15.8625 15.7488 15.0225 14.7538 14.78C13.7588 14.5375 12.9913 13.7038 13.2025 12.9288C13.379 12.5227 13.7028 12.1987 14.1088 12.0219C14.5147 11.8452 14.9725 11.8289 15.39 11.9763C15.8188 12.0725 16.2075 12.3013 16.5 12.6313M14.8025 17.6525V18.4237M14.8025 11V11.9063M1 14.75V19.75M4.75 12.25V19.75M3.5 6.625L9.125 2.25L13.5 5.375L18.5 1M18.5 1H14.125M18.5 1V4.75M21 14.75C21 16.4076 20.3415 17.9973 19.1694 19.1694C17.9973 20.3415 16.4076 21 14.75 21C13.0924 21 11.5027 20.3415 10.3306 19.1694C9.15848 17.9973 8.5 16.4076 8.5 14.75C8.5 13.0924 9.15848 11.5027 10.3306 10.3306C11.5027 9.15848 13.0924 8.5 14.75 8.5C16.4076 8.5 17.9973 9.15848 19.1694 10.3306C20.3415 11.5027 21 13.0924 21 14.75Z" stroke="#ECE4B7" stroke-width="2" stroke-linecap="round" stroke-linejoin="round"/>
</svg>
