<svg width="22" height="22" viewBox="0 0 22 22" fill="none" xmlns="http://www.w3.org/2000/svg">
<path d="M11.0021 5.45106H11.0132M14.8865 7.13145H14.8976M7.14431 7.13145H7.15542M5.43542 11.0042H5.44653M15.4465 15.4468H18.4532C18.9127 15.4535 19.3625 15.3147 19.7383 15.0504C20.1141 14.7861 20.3966 14.4097 20.5454 13.9752C20.9874 12.5604 21.1091 11.065 20.9017 9.59744C20.6943 8.12984 20.1629 6.72672 19.3461 5.48968C18.5293 4.25265 17.4475 3.21266 16.1791 2.44503C14.9107 1.6774 13.4873 1.20134 12.0121 1.05133C10.5369 0.901318 9.0468 1.08111 7.64969 1.57768C6.25258 2.07426 4.98343 2.87518 3.93415 3.92246C2.88487 4.96974 2.08173 6.23716 1.58288 7.63293C1.08404 9.02871 0.90197 10.5179 1.04987 11.9927C1.24284 13.705 1.87058 15.3395 2.87346 16.7411C3.87634 18.1426 5.22106 19.2646 6.77987 20.0003C8.08154 20.6476 9.51382 20.9895 10.9676 20.9999C11.2617 21.0024 11.5534 20.9469 11.8261 20.8366C12.0987 20.7262 12.3468 20.5632 12.5563 20.3569C12.7658 20.1506 12.9326 19.905 13.047 19.6342C13.1614 19.3633 13.2213 19.0726 13.2232 18.7787V17.8268C13.2072 17.5233 13.2526 17.2196 13.3566 16.934C13.4607 16.6484 13.6213 16.3867 13.8288 16.1645C14.0364 15.9423 14.2866 15.7642 14.5645 15.6409C14.8425 15.5176 15.1425 15.4516 15.4465 15.4468Z" stroke="#ECE4B7" stroke-width="2" stroke-linecap="round" stroke-linejoin="round"/>
</svg>
