<svg width="20" height="22" viewBox="0 0 20 22" fill="none" xmlns="http://www.w3.org/2000/svg">
<path d="M1 1H2.92857L6.14286 16M6.14286 16H16.4286M6.14286 16C5.46087 16 4.80682 16.2634 4.32458 16.7322C3.84235 17.2011 3.57143 17.837 3.57143 18.5C3.57143 19.163 3.84235 19.7989 4.32458 20.2678C4.80682 20.7366 5.46087 21 6.14286 21C6.82484 21 7.47889 20.7366 7.96113 20.2678C8.44337 19.7989 8.71429 19.163 8.71429 18.5C8.71429 17.837 8.44337 17.2011 7.96113 16.7322C7.47889 16.2634 6.82484 16 6.14286 16ZM16.4286 16C15.7466 16 15.0925 16.2634 14.6103 16.7322C14.1281 17.2011 13.8571 17.837 13.8571 18.5C13.8571 19.163 14.1281 19.7989 14.6103 20.2678C15.0925 20.7366 15.7466 21 16.4286 21C17.1106 21 17.7646 20.7366 18.2468 20.2678C18.7291 19.7989 19 19.163 19 18.5C19 17.837 18.7291 17.2011 18.2468 16.7322C17.7646 16.2634 17.1106 16 16.4286 16ZM5.5 12.25H17.3929L19 4.75H3.97257" stroke="#ECE4B7" stroke-width="2" stroke-linecap="round" stroke-linejoin="round"/>
</svg>
