<svg width="22" height="22" viewBox="0 0 22 22" fill="none" xmlns="http://www.w3.org/2000/svg">
<path d="M3.5 11C3.82875 11 4.155 10.925 4.45875 10.7813C4.76882 10.6346 5.04539 10.4257 5.27125 10.1675C5.50375 9.90501 5.6875 9.59252 5.8125 9.25002C5.9375 8.90752 6 8.54002 6 8.17002C5.99408 8.89997 6.25451 9.60704 6.7325 10.1588C7.20125 10.6863 7.8375 10.9825 8.5 10.9825C9.1625 10.9825 9.8 10.6863 10.2675 10.1588C10.7455 9.60704 11.0059 8.89997 11 8.17002C10.9941 8.89997 11.2545 9.60704 11.7325 10.1588C12.2013 10.6863 12.8375 10.9825 13.5 10.9825C14.1625 10.9825 14.8 10.6863 15.2675 10.1588C15.7455 9.60704 16.0059 8.89997 16 8.17002C16 8.53877 16.065 8.90502 16.19 9.24627C16.315 9.58752 16.5 9.89751 16.7325 10.1588C16.9584 10.4154 17.2345 10.623 17.5438 10.7688C17.843 10.9092 18.1695 10.9821 18.5 10.9821C18.8305 10.9821 19.157 10.9092 19.4562 10.7688C19.766 10.6232 20.0425 10.4156 20.2688 10.1588C20.5 9.89751 20.6837 9.58752 20.81 9.24627C20.9362 8.90502 21 8.53877 21 8.17002C21 6.95252 19.615 3.35752 18.9775 1.76878C18.8859 1.54049 18.7277 1.34508 18.5235 1.20796C18.3192 1.07085 18.0785 0.998396 17.8325 1.00003H4.07C3.81706 0.999501 3.57003 1.0765 3.36218 1.22065C3.15433 1.3648 2.99565 1.56919 2.9075 1.80628C2.30625 3.45252 1 7.13127 1 8.17002C1.02875 8.90752 1.30125 9.60502 1.76375 10.1288C2.22625 10.6513 2.845 10.9625 3.5 11ZM3.5 11C3.91 11 4.31375 10.8863 4.675 10.6675C5.04639 10.441 5.35566 10.1257 5.575 9.75002H6.42625C6.64489 10.1254 6.95327 10.4407 7.32375 10.6675C7.68625 10.8863 8.09 11 8.50125 11C8.9125 11 9.315 10.8863 9.67625 10.6675C10.0387 10.45 10.3475 10.1338 10.575 9.75002H11.4262C11.6452 10.1256 11.9541 10.4408 12.325 10.6675C12.6863 10.8863 13.09 11 13.5 11C13.9112 11 14.315 10.8863 14.6775 10.6675C15.04 10.45 15.3475 10.1338 15.575 9.75002H16.4262C16.655 10.1338 16.9637 10.45 17.325 10.6675C17.6875 10.885 18.0912 11 18.5012 11C18.9783 10.9979 19.4423 10.8443 19.8263 10.5613M3.5 11C2.95895 10.9862 2.44175 10.7745 2.04625 10.405M2.25 11V19.75C2.25 20.0815 2.3817 20.3995 2.61612 20.6339C2.85054 20.8683 3.16848 21 3.5 21H6V14.75H9.75V21H18.5C18.8315 21 19.1495 20.8683 19.3839 20.6339C19.6183 20.3995 19.75 20.0815 19.75 19.75V11M13.5 14.75V17.25H16V14.75H13.5Z" stroke="#ECE4B7" stroke-width="2" stroke-linecap="round" stroke-linejoin="round"/>
</svg>
