<svg width="27" height="27" viewBox="0 0 27 27" fill="none" xmlns="http://www.w3.org/2000/svg">
<circle cx="13.5" cy="13.5" r="13.5" fill="#16302B"/>
<path d="M11.8 16.5714L16.2115 14L11.8 11.4286V16.5714ZM21.626 9.86C21.7365 10.2629 21.813 10.8029 21.864 11.4886C21.9235 12.1743 21.949 12.7657 21.949 13.28L22 14C22 15.8771 21.864 17.2571 21.626 18.14C21.4135 18.9114 20.9205 19.4086 20.1555 19.6229C19.756 19.7343 19.025 19.8114 17.903 19.8629C16.798 19.9229 15.7865 19.9486 14.8515 19.9486L13.5 20C9.9385 20 7.72 19.8629 6.8445 19.6229C6.0795 19.4086 5.5865 18.9114 5.374 18.14C5.2635 17.7371 5.187 17.1971 5.136 16.5114C5.0765 15.8257 5.051 15.2343 5.051 14.72L5 14C5 12.1229 5.136 10.7429 5.374 9.86C5.5865 9.08857 6.0795 8.59143 6.8445 8.37714C7.244 8.26571 7.975 8.18857 9.097 8.13714C10.202 8.07714 11.2135 8.05143 12.1485 8.05143L13.5 8C17.0615 8 19.28 8.13714 20.1555 8.37714C20.9205 8.59143 21.4135 9.08857 21.626 9.86Z" fill="#91422A"/>
</svg>
