<svg width="24" height="24" viewBox="0 0 24 24" fill="none" xmlns="http://www.w3.org/2000/svg">
<circle cx="12" cy="12" r="12" fill="#16302B"/>
<path d="M14.0684 5.77783H9.36255C6.98015 5.77783 5.04883 7.70915 5.04883 10.0916V14.7974C5.04883 17.1798 6.98015 19.1112 9.36255 19.1112H14.0684C16.4508 19.1112 18.3822 17.1798 18.3822 14.7974V10.0916C18.3822 7.70915 16.4508 5.77783 14.0684 5.77783Z" fill="#16302B" stroke="#91422A" stroke-width="1.33333" stroke-linecap="round" stroke-linejoin="round"/>
<path d="M11.715 15.2729C13.2769 15.2729 14.5432 14.0067 14.5432 12.4447C14.5432 10.8827 13.2769 9.61646 11.715 9.61646C10.153 9.61646 8.88672 10.8827 8.88672 12.4447C8.88672 14.0067 10.153 15.2729 11.715 15.2729Z" fill="#16302B" stroke="#91422A" stroke-width="1.33333" stroke-linecap="round" stroke-linejoin="round"/>
<path d="M15.5537 8.24268C15.7543 8.24268 15.9169 8.40536 15.917 8.60596C15.917 8.80666 15.7544 8.96924 15.5537 8.96924C15.3531 8.96912 15.1904 8.80658 15.1904 8.60596C15.1906 8.40544 15.3532 8.2428 15.5537 8.24268Z" fill="#233D4D" stroke="#91422A" stroke-width="0.888889"/>
</svg>
