<svg width="24" height="24" viewBox="0 0 24 24" fill="none" xmlns="http://www.w3.org/2000/svg">
<circle cx="12" cy="12" r="12" fill="#91422A"/>
<path d="M14.0679 5.77771H9.36207C6.97966 5.77771 5.04834 7.70903 5.04834 10.0914V14.7973C5.04834 17.1797 6.97966 19.111 9.36207 19.111H14.0679C16.4504 19.111 18.3817 17.1797 18.3817 14.7973V10.0914C18.3817 7.70903 16.4504 5.77771 14.0679 5.77771Z" fill="#91422A" stroke="#D9DD92" stroke-width="1.33333" stroke-linecap="round" stroke-linejoin="round"/>
<path d="M11.7154 15.2727C13.2774 15.2727 14.5437 14.0064 14.5437 12.4444C14.5437 10.8825 13.2774 9.61621 11.7154 9.61621C10.1535 9.61621 8.88721 10.8825 8.88721 12.4444C8.88721 14.0064 10.1535 15.2727 11.7154 15.2727Z" fill="#91422A" stroke="#D9DD92" stroke-width="1.33333" stroke-linecap="round" stroke-linejoin="round"/>
<path d="M15.5532 8.24243C15.7538 8.24243 15.9164 8.40512 15.9165 8.60571C15.9165 8.80641 15.7539 8.96899 15.5532 8.96899C15.3526 8.96887 15.1899 8.80634 15.1899 8.60571C15.1901 8.40519 15.3527 8.24255 15.5532 8.24243Z" fill="#91422A" stroke="#D9DD92" stroke-width="0.888889"/>
</svg>
