<svg width="24" height="24" viewBox="0 0 24 24" fill="none" xmlns="http://www.w3.org/2000/svg">
<circle cx="12" cy="12" r="12" fill="#16302B"/>
<path d="M16.3913 6.06233C15.7838 5.36858 15.449 4.4778 15.4491 3.55566H12.7024V14.5779C12.6816 15.1745 12.43 15.7397 12.0004 16.1543C11.5709 16.5689 10.9971 16.8005 10.4002 16.8001C9.13794 16.8001 8.08905 15.769 8.08905 14.489C8.08905 12.9601 9.56461 11.8134 11.0846 12.2846V9.47566C8.01794 9.06678 5.3335 11.449 5.3335 14.489C5.3335 17.449 7.78683 19.5557 10.3913 19.5557C13.1824 19.5557 15.4491 17.289 15.4491 14.489V8.89789C16.5628 9.69775 17.9 10.1269 19.2713 10.1246V7.37789C19.2713 7.37789 17.6002 7.45789 16.3913 6.06233Z" fill="#91422A"/>
</svg>
