<svg width="24" height="24" viewBox="0 0 24 24" fill="none" xmlns="http://www.w3.org/2000/svg">
<circle cx="12" cy="12" r="12" fill="#91422A"/>
<path d="M16.3913 6.06221C15.7838 5.36845 15.449 4.47767 15.4491 3.55554H12.7024V14.5778C12.6816 15.1744 12.43 15.7396 12.0004 16.1542C11.5709 16.5688 10.9971 16.8003 10.4002 16.8C9.13794 16.8 8.08905 15.7689 8.08905 14.4889C8.08905 12.96 9.56461 11.8133 11.0846 12.2844V9.47554C8.01794 9.06665 5.3335 11.4489 5.3335 14.4889C5.3335 17.4489 7.78683 19.5555 10.3913 19.5555C13.1824 19.5555 15.4491 17.2889 15.4491 14.4889V8.89776C16.5628 9.69763 17.9 10.1268 19.2713 10.1244V7.37776C19.2713 7.37776 17.6002 7.45776 16.3913 6.06221Z" fill="#D9DD92"/>
</svg>
