<svg width="24" height="24" viewBox="0 0 24 24" fill="none" xmlns="http://www.w3.org/2000/svg">
<circle cx="12" cy="12" r="12" fill="#16302B"/>
<path d="M16.3908 6.06233C15.7833 5.36858 15.4485 4.4778 15.4486 3.55566H12.7019V14.5779C12.6812 15.1745 12.4295 15.7397 11.9999 16.1543C11.5704 16.5689 10.9967 16.8005 10.3997 16.8001C9.13745 16.8001 8.08856 15.769 8.08856 14.489C8.08856 12.9601 9.56412 11.8134 11.0841 12.2846V9.47566C8.01745 9.06678 5.33301 11.449 5.33301 14.489C5.33301 17.449 7.78634 19.5557 10.3908 19.5557C13.1819 19.5557 15.4486 17.289 15.4486 14.489V8.89789C16.5623 9.69775 17.8996 10.1269 19.2708 10.1246V7.37789C19.2708 7.37789 17.5997 7.45789 16.3908 6.06233Z" fill="#91422A"/>
</svg>
