<svg width="16" height="16" viewBox="0 0 16 16" fill="none" xmlns="http://www.w3.org/2000/svg">
<path d="M13.8601 0.888916H1.77832C1.60744 0.88877 1.44014 0.937883 1.29645 1.03037C1.15276 1.12287 1.03877 1.25482 0.968146 1.41042C0.897519 1.56603 0.873241 1.73869 0.898221 1.90774C0.9232 2.07679 0.996378 2.23505 1.10899 2.36358L5.82188 7.74847C5.96363 7.91068 6.04165 8.11884 6.04143 8.33425V12.6667C6.04143 12.7357 6.0575 12.8037 6.08836 12.8655C6.11921 12.9272 6.16401 12.9809 6.21921 13.0222L8.88588 15.0222C8.95191 15.0718 9.03043 15.1019 9.11263 15.1093C9.19484 15.1168 9.27748 15.1011 9.35131 15.0642C9.42513 15.0273 9.48722 14.9706 9.53061 14.9004C9.57401 14.8301 9.59699 14.7492 9.59699 14.6667V8.33425C9.59678 8.11884 9.6748 7.91068 9.81655 7.74847L14.5294 2.36269C15.0325 1.78847 14.6237 0.888916 13.8601 0.888916Z" stroke="#694873" stroke-width="1.77778" stroke-linecap="round"/>
</svg>
