<svg width="24" height="24" viewBox="0 0 24 24" fill="none" xmlns="http://www.w3.org/2000/svg">
<circle cx="12" cy="12" r="12" fill="#16302B"/>
<path d="M10.4888 14.7303L14.4101 12.4445L10.4888 10.1588V14.7303ZM19.223 8.76454C19.3212 9.12263 19.3892 9.60263 19.4346 10.2122C19.4874 10.8217 19.5101 11.3474 19.5101 11.8045L19.5554 12.4445C19.5554 14.1131 19.4346 15.3398 19.223 16.1245C19.0341 16.8103 18.5959 17.2522 17.9159 17.4426C17.5608 17.5417 16.911 17.6103 15.9137 17.656C14.9314 17.7093 14.0323 17.7322 13.2012 17.7322L11.9999 17.7779C8.83411 17.7779 6.86211 17.656 6.08389 17.4426C5.40389 17.2522 4.96567 16.8103 4.77678 16.1245C4.67856 15.7664 4.61056 15.2864 4.56522 14.6769C4.51234 14.0674 4.48967 13.5417 4.48967 13.0845L4.44434 12.4445C4.44434 10.776 4.56522 9.5493 4.77678 8.76454C4.96567 8.07883 5.40389 7.63692 6.08389 7.44644C6.439 7.3474 7.08878 7.27882 8.08611 7.23311C9.06834 7.17978 9.96745 7.15692 10.7986 7.15692L11.9999 7.11121C15.1657 7.11121 17.1377 7.23311 17.9159 7.44644C18.5959 7.63692 19.0341 8.07883 19.223 8.76454Z" fill="#91422A"/>
</svg>
