<svg width="24" height="24" viewBox="0 0 24 24" fill="none" xmlns="http://www.w3.org/2000/svg">
<circle cx="12" cy="12" r="12" fill="#91422A"/>
<path d="M10.4888 14.7301L14.4101 12.4444L10.4888 10.1587V14.7301ZM19.223 8.76442C19.3212 9.12251 19.3892 9.60251 19.4346 10.212C19.4874 10.8216 19.5101 11.3473 19.5101 11.8044L19.5554 12.4444C19.5554 14.113 19.4346 15.3397 19.223 16.1244C19.0341 16.8101 18.5959 17.252 17.9159 17.4425C17.5608 17.5416 16.911 17.6101 15.9137 17.6558C14.9314 17.7092 14.0323 17.732 13.2012 17.732L11.9999 17.7778C8.83411 17.7778 6.86211 17.6558 6.08389 17.4425C5.40389 17.252 4.96567 16.8101 4.77678 16.1244C4.67856 15.7663 4.61056 15.2863 4.56522 14.6768C4.51234 14.0673 4.48967 13.5416 4.48967 13.0844L4.44434 12.4444C4.44434 10.7758 4.56522 9.54918 4.77678 8.76442C4.96567 8.0787 5.40389 7.6368 6.08389 7.44632C6.439 7.34727 7.08878 7.2787 8.08611 7.23299C9.06834 7.17966 9.96745 7.1568 10.7986 7.1568L11.9999 7.11108C15.1657 7.11108 17.1377 7.23299 17.9159 7.44632C18.5959 7.6368 19.0341 8.0787 19.223 8.76442Z" fill="#D9DD92"/>
</svg>
