<svg width="24" height="24" viewBox="0 0 24 24" fill="none" xmlns="http://www.w3.org/2000/svg">
<circle cx="12" cy="12" r="12" fill="#16302B"/>
<path d="M10.4888 14.7304L14.4101 12.4447L10.4888 10.1589V14.7304ZM19.223 8.76466C19.3212 9.12276 19.3892 9.60276 19.4346 10.2123C19.4874 10.8218 19.5101 11.3475 19.5101 11.8047L19.5554 12.4447C19.5554 14.1132 19.4346 15.3399 19.223 16.1247C19.0341 16.8104 18.5959 17.2523 17.9159 17.4428C17.5608 17.5418 16.911 17.6104 15.9137 17.6561C14.9314 17.7094 14.0323 17.7323 13.2012 17.7323L11.9999 17.778C8.83411 17.778 6.86211 17.6561 6.08389 17.4428C5.40389 17.2523 4.96567 16.8104 4.77678 16.1247C4.67856 15.7666 4.61056 15.2866 4.56522 14.677C4.51234 14.0675 4.48967 13.5418 4.48967 13.0847L4.44434 12.4447C4.44434 10.7761 4.56522 9.54942 4.77678 8.76466C4.96567 8.07895 5.40389 7.63704 6.08389 7.44657C6.439 7.34752 7.08878 7.27895 8.08611 7.23323C9.06834 7.1799 9.96745 7.15704 10.7986 7.15704L11.9999 7.11133C15.1657 7.11133 17.1377 7.23323 17.9159 7.44657C18.5959 7.63704 19.0341 8.07895 19.223 8.76466Z" fill="#91422A"/>
</svg>
